# xmcd CD database file
#
# Track frame offsets:
#	150
#	12006
#	28415
#	41592
#	55461
#	67459
#	80076
#	93785
#	108264
#	122140
#	136939
#	148615
#	162172
#	171820
#	194051
#	207417
#	230986
#
# Disc length: 3256 seconds
#
# Revision: 0
# Processed by: cddbd v1.5.2PL0 Copyright (c) Steve Scherf et al.
# Submitted via: CDex 1.51
#
DISCID=020cb611
DTITLE=Various Artist - Jazz, CD1
DYEAR=2004
DGENRE=Jazz
TTITLE0=Milestones - Miles Davis
TTITLE1=My Baby Just Cares for Me - Nina Simone
TTITLE2=That Ole Devil Called Love - Billie Holiday
TTITLE3=One O'Clock Jump - Count Basie and His Orchestra
TTITLE4=Groovin' High - Dizzy Gillespie
TTITLE5=My Favourite Things - Sarah Vaughan
TTITLE6=Blow Mr Dexter - Dexter Gordon
TTITLE7=Dedication - Coleman Hawkins
TTITLE8=Rhythm Rhapsody - Earl Hines
TTITLE9=Blue Prelude - Woody Herman
TTITLE10=Old Devil Moon - Lena Horne
TTITLE11=Mad About The Boy - Dinah Washington
TTITLE12=Just A Gigolo - Thelonious Monk
TTITLE13=Expoobident - Lee Morgan
TTITLE14=All or Nothing At All - Wayne Shorter
TTITLE15=Sophisticated Lady - Archie Shepp
TTITLE16=Ornithology - Charlie Parker
EXTD=YEAR: 2004
EXTT0=
EXTT1=
EXTT2=
EXTT3=
EXTT4=
EXTT5=
EXTT6=
EXTT7=
EXTT8=
EXTT9=
EXTT10=
EXTT11=
EXTT12=
EXTT13=
EXTT14=
EXTT15=
EXTT16=
PLAYORDER=
